<?xml version="1.0" encoding="utf-8"?>
<!-- Generator: Adobe Illustrator 24.0.2, SVG Export Plug-In . SVG Version: 6.00 Build 0)  -->
<!DOCTYPE svg PUBLIC "-//W3C//DTD SVG 1.1//EN" "http://www.w3.org/Graphics/SVG/1.1/DTD/svg11.dtd" [
	<!ENTITY ns_extend "http://ns.adobe.com/Extensibility/1.0/">
	<!ENTITY ns_ai "http://ns.adobe.com/AdobeIllustrator/10.0/">
	<!ENTITY ns_graphs "http://ns.adobe.com/Graphs/1.0/">
	<!ENTITY ns_vars "http://ns.adobe.com/Variables/1.0/">
	<!ENTITY ns_imrep "http://ns.adobe.com/ImageReplacement/1.0/">
	<!ENTITY ns_sfw "http://ns.adobe.com/SaveForWeb/1.0/">
	<!ENTITY ns_custom "http://ns.adobe.com/GenericCustomNamespace/1.0/">
	<!ENTITY ns_adobe_xpath "http://ns.adobe.com/XPath/1.0/">
]>
<svg version="1.1" id="Layer_1" xmlns:x="&ns_extend;" xmlns:i="&ns_ai;" xmlns:graph="&ns_graphs;"
	 xmlns="http://www.w3.org/2000/svg" xmlns:xlink="http://www.w3.org/1999/xlink" x="0px" y="0px" viewBox="0 0 496.4 250"
	 style="enable-background:new 0 0 496.4 250;" xml:space="preserve">
<style type="text/css">
	.st0{clip-path:url(#SVGID_2_);fill:#FFFFFF;}
	.st1{fill:#FFFFFF;}
	.st2{fill:none;stroke:#000000;stroke-width:1.3333;stroke-linecap:square;stroke-linejoin:round;stroke-miterlimit:10;}
	.st3{font-family:'SansSerif';}
	.st4{font-size:18.6667px;}
	.st5{fill:none;stroke:#AAC7FD;stroke-width:2;stroke-linejoin:bevel;stroke-miterlimit:1;stroke-dasharray:8,8;}
	.st6{fill:none;stroke:#AAC7FD;stroke-width:2;stroke-linejoin:round;stroke-miterlimit:10;}
	.st7{fill:none;stroke:#3B4CC0;stroke-width:2;stroke-linejoin:bevel;stroke-miterlimit:1;stroke-dasharray:8,8;}
	.st8{fill:none;stroke:#3B4CC0;stroke-width:2;stroke-linejoin:round;stroke-miterlimit:10;}
	.st9{fill:none;stroke:#F7B89C;stroke-width:2;stroke-linejoin:bevel;stroke-miterlimit:1;stroke-dasharray:8,8;}
	.st10{fill:none;stroke:#F7B89C;stroke-width:2;stroke-linejoin:round;stroke-miterlimit:10;}
	.st11{fill:none;stroke:#B40426;stroke-width:2;stroke-linejoin:bevel;stroke-miterlimit:1;stroke-dasharray:8,8;}
	.st12{fill:none;stroke:#B40426;stroke-width:2;stroke-linejoin:round;stroke-miterlimit:10;}
	.st13{enable-background:new    ;}
	.st14{fill:#3B4CC0;}
	.st15{letter-spacing:30;}
	.st16{fill:#AAC7FD;}
	.st17{fill:#B40426;}
	.st18{fill:#F7B89C;}
	.st19{fill:none;stroke:#000000;stroke-miterlimit:10;}
</style>
<metadata>
	<sfw  xmlns="&ns_sfw;">
		<slices></slices>
		<sliceSourceBounds  bottomLeftOrigin="true" height="250" width="473.6" x="0" y="0"></sliceSourceBounds>
	</sfw>
</metadata>
<g>
	<g>
		<defs>
			<rect id="SVGID_1_" width="275" height="250"/>
		</defs>
		<clipPath id="SVGID_2_">
			<use xlink:href="#SVGID_1_"  style="overflow:visible;"/>
		</clipPath>
		<rect class="st0" width="275" height="250"/>
	</g>
</g>
<g>
	<rect class="st1" width="275" height="250"/>
</g>
<g>
	<line class="st2" x1="57" y1="193" x2="249" y2="193"/>
	<line class="st2" x1="57" y1="193" x2="57" y2="194.9"/>
	<line class="st2" x1="153" y1="193" x2="153" y2="194.9"/>
	<line class="st2" x1="249" y1="193" x2="249" y2="194.9"/>
</g>
<g transform="translate(57,201.3147)">
	<text transform="matrix(1 0 0 1 -5.5 19)" class="st3 st4">0</text>
</g>
<g transform="translate(153,201.3147)">
	<text transform="matrix(1 0 0 1 -13 19)" class="st3 st4">0.5</text>
</g>
<g transform="translate(249,201.3147)">
	<text transform="matrix(1 0 0 1 -5.5 19)" class="st3 st4">1</text>
</g>
<g transform="translate(153.0001,225.7847)">
	<text transform="matrix(1 0 0 1 -99 19)" class="st3 st4">time from stereoclick (s)</text>
</g>
<g>
	<line class="st2" x1="57" y1="193" x2="57" y2="19"/>
	<line class="st2" x1="57" y1="193" x2="55.1" y2="193"/>
	<line class="st2" x1="57" y1="135" x2="55.1" y2="135"/>
	<line class="st2" x1="57" y1="77" x2="55.1" y2="77"/>
	<line class="st2" x1="57" y1="19" x2="55.1" y2="19"/>
</g>
<g transform="translate(48.6853,193)">
	<text transform="matrix(1 0 0 1 -11 7)" class="st3 st4">0</text>
</g>
<g transform="translate(48.6853,135)">
	<text transform="matrix(1 0 0 1 -11 7)" class="st3 st4">5</text>
</g>
<g transform="translate(48.6853,77)">
	<text transform="matrix(1 0 0 1 -21 7)" class="st3 st4">10</text>
</g>
<g transform="translate(48.6853,19)">
	<text transform="matrix(1 0 0 1 -21 7)" class="st3 st4">15</text>
</g>
<g transform="translate(24.2153,105.9999) rotate(-90)">
	<text transform="matrix(1 0 0 1 -34.0001 -5)" class="st3 st4">spikes/s</text>
</g>
<path class="st5" d="M58.9,106l1.9-24.2l1.9,1.6l1.9-11.5l1.9-5.1l1.9-10.2l1.9-0.2l1.9,2.5l1.9-3.9l1.9,3.3l1.9,6l1.9,7.3l1.9,1.9
	l1.9,5.3l1.9,5.7l1.9,0.3l1.9,0.2l1.9,1.6l1.9,1.5l1.9-0.3l1.9-1.1l1.9-2.8l1.9-1.3l1.9,0.2l1.9-0.6l1.9-0.6l1.9,2.4l1.9,3.2
	l1.9,0.9l1.9-0.6l1.9-0.7l1.9-0.7l1.9,2.7l1.9-1.5l1.9,0.3l1.9,0.6l1.9-0.2l1.9-2.2l1.9,2.2l1.9,1.4l1.9-2.7l1.9-0.3l1.9,2.5
	l1.9,1.6l1.9-0.2l1.9-3.3l1.9-2.5l1.9,1.3l1.9,0.7l1.9,2.1l1.9,2l1.9,4.2l1.9-2.6l1.9-7.3l1.9,1.5l1.9-4.4l1.9,3.2l1.9,1.8l1.9,4
	l1.9-0.2l1.9,1.8l1.9,0.3l1.9-3.1l1.9,1.6l1.9,0.3l1.9,2l1.9,4l1.9-8.5l1.9,0.2l1.9-3.5l1.9,1.2l1.9,2.4l1.9,0.8l1.9-1.3l1.9-3.6
	l1.9,0.3l1.9,5l1.9-0.9l1.9-4.7l1.9,4.2l1.9-1.7l1.9-5.1l1.9,8.8l1.9,1.2l1.9,1.6l1.9-1.2l1.9,2.1l1.9,0.8l1.9,0.9l1.9-10.9l1.9,4.9
	l1.9,5.9l1.9,2.6l1.9-4.4l1.9-8.6l1.9,4.4l1.9-5.8l1.9-6.4l1.9-4.6l1.9-3"/>
<path class="st6" d="M58.9,75.3l1.9-2l1.9-1l1.9-2.3l1.9-1.6l1.9-0.9l1.9,0.1l1.9,1.6l1.9,1.5l1.9,1l1.9,1.2l1.9,1l1.9,1l1.9,1.5
	l1.9,1.3l1.9,1.6l1.9,1l1.9,1.2l1.9,0.9l1.9,1l1.9,1l1.9,1l1.9,1l1.9,0l1.9,0.1l1.9,0.5l1.9,0l1.9,0.3l1.9,0.1l1.9-0.3l1.9-0.3
	l1.9-0.3l1.9-0.2l1.9,0.1l1.9,0l1.9-0.3l1.9,0l1.9,0l1.9-0.1l1.9,0l1.9-0.1l1.9-0.1l1.9-0.2l1.9,0.3l1.9-0.4l1.9-0.5l1.9,0.1
	l1.9-0.4l1.9-0.5l1.9-0.5l1.9-0.2l1.9-0.7l1.9-0.6l1.9-0.4l1.9-0.5l1.9-0.6l1.9-0.6l1.9-0.9l1.9-0.3l1.9-0.5l1.9-0.6l1.9-0.2l1.9,0
	l1.9-0.6l1.9-0.5l1.9-0.7l1.9-0.1l1.9-0.3l1.9-0.3l1.9-0.3l1.9-0.9l1.9-0.3l1.9-0.4l1.9-0.6l1.9,0.5l1.9-0.1l1.9-0.4l1.9-0.1
	l1.9-0.1l1.9-0.3l1.9,0.6l1.9-0.3l1.9,0.4l1.9,0l1.9-0.8l1.9,0.2l1.9,0l1.9,0.7l1.9,0l1.9-0.2l1.9,0.2l1.9,0.5l1.9,0.2l1.9,0.2
	l1.9,0.5l1.9-0.4l1.9,0l1.9,0.2l1.9-0.2l1.9-0.3"/>
<path class="st7" d="M58.9,58.1l1.9-23.7l1.9,14.7l1.9,7.5l1.9-1l1.9-1.8l1.9,6.8l1.9,5.4l1.9,9.4l1.9,5.6l1.9,1.2l1.9,1l1.9,0.1
	l1.9-3.1l1.9,3.1l1.9-0.7l1.9-1.8l1.9,2.7l1.9,2l1.9-0.8l1.9-2.5l1.9,1.3l1.9-3.5l1.9,0.2l1.9-1.4l1.9,1.8l1.9-0.3l1.9-3.4l1.9,0.3
	l1.9,0.6l1.9-1.3l1.9-0.6l1.9,0.2l1.9,1.3l1.9-2.4l1.9-0.4L128,77l1.9-0.2l1.9-2.8l1.9-3.8l1.9-1.6l1.9-0.9l1.9,2.7l1.9-0.2l1.9-0.5
	l1.9,0.1l1.9-0.9l1.9,2.1l1.9,0l1.9,0.5l1.9,3.7l1.9-2.2l1.9,1.9l1.9,0.5l1.9-2.5l1.9,0.3l1.9,1.8l1.9-2.8l1.9-1.9l1.9,4.1l1.9,1.1
	l1.9,3.9l1.9-4.8l1.9,1.1l1.9,1.4l1.9-0.9l1.9-2.4l1.9,6.7l1.9-0.8l1.9,2.3l1.9,0.5l1.9-4.6l1.9,0l1.9-3L201,72l1.9-4.5l1.9,0.8
	l1.9-0.5l1.9-2.8l1.9,3l1.9-5.5l1.9-0.2l1.9-4.7l1.9-1.7l1.9-7.1l1.9-1.5l1.9-2.4L226,43l1.9,7.6l1.9,2l1.9,2.5l1.9-2.1l1.9,3.1
	l1.9-3.6l1.9-11.6l1.9,0.9l1.9-0.4l1.9,2.8l1.9,3.2l1.9,3.6"/>
<g>
	<path class="st8" d="M58.9,77.9l1.9-7l1.9-3.3l1.9-2.2l1.9-1.3l1.9,0.4l1.9,0.3l1.9,0.1l1.9,0.9l1.9,1l1.9,2.2l1.9,1.7l1.9,1.8
		l1.9,1.6l1.9,1.7l1.9,1.2l1.9,1.3l1.9,1.5l1.9,0.6l1.9,0.6l1.9,0.8l1.9,0.6l1.9,0.6l1.9,0.5l1.9,0.1l1.9,0.4l1.9,0.1l1.9,0.2
		l1.9-0.2l1.9-0.5l1.9-0.2l1.9-0.4l1.9-0.1l1.9-0.4l1.9,0.2l1.9,0.2l1.9,0l1.9,0.1l1.9,0.1l1.9-0.2l1.9,0.3l1.9,0l1.9-0.3l1.9,0.3
		l1.9,0.1l1.9-0.3l1.9,0.5l1.9-0.2l1.9-0.2l1.9,0.1l1.9,0l1.9,0.1l1.9-0.2l1.9-0.6l1.9-0.1l1.9-0.4l1.9-0.9l1.9-0.3l1.9-0.3l1.9-0.2
		l1.9-0.3l1.9-0.3l1.9-1l1.9-0.3l1.9-0.3l1.9-0.3l1.9,0.1l1.9-0.5l1.9-0.4l1.9-0.1l1.9,0.3l1.9-0.3l1.9-0.4l1.9,0.1l1.9-0.7l1.9,0.5
		l1.9,0.2l1.9-0.8l1.9,0l1.9-0.8l1.9-0.6l1.9,0.2l1.9-0.3l1.9,1l1.9-0.1l1.9-0.1l1.9,0.4l1.9,0.3l1.9-0.5l1.9-0.1l1.9,0.7l1.9-0.2
		l1.9-0.8l1.9-0.4l1.9-0.5l1.9,0.7l1.9,0.8l1.9,0.5l1.9-0.9l1.9-0.6"/>
</g>
<path class="st9" d="M58.9,121.1l1.9-40.6l1.9-13.7l1.9,9l1.9,3.7l1.9,2.6l1.9,0.5l1.9-2l1.9,3.9l1.9,1.2l1.9,3l1.9,0.8L82,92
	l1.9,0.5l1.9,4.5l1.9,1.8l1.9,1.7l1.9,3.7l1.9,2.8l1.9,2.6l1.9,1l1.9,0.1l1.9-0.7l1.9,1.3l1.9-0.2l1.9,2.5l1.9,0.8l1.9,3.7l1.9,0.1
	l1.9,1.3l1.9-3.1l1.9,1.1l1.9,0.8l1.9,1.7l1.9-0.5l1.9-1.8l1.9-1.1l1.9-1.2l1.9,0.7l1.9-1.7l1.9,2.4l1.9-3.1l1.9-0.3l1.9-0.5
	l1.9-3.2l1.9-2.4l1.9-1.5l1.9,1.1l1.9,0.4l1.9-0.7l1.9,0l1.9-1.8l1.9,1.9l1.9-1.6l1.9,1.1l1.9-6.3l1.9-2.3l1.9,1.3l1.9-1.4l1.9-7.3
	l1.9-2.5l1.9,1.4l1.9,4.5l1.9,1.3l1.9,1.7l1.9,1.7l1.9-1.3l1.9,0.8l1.9-2.8l1.9,2.2l1.9,0.3l1.9-0.1l1.9,8.9l1.9-1.1l1.9-3.6l1.9-4
	l1.9,4.2l1.9-1.6l1.9-3.8l1.9,0.9l1.9,6.7l1.9-0.7l1.9,2.7l1.9-0.8l1.9,9.6l1.9-4.9l1.9-9.2l1.9-12.4l1.9,2l1.9,0.6l1.9-0.7l1.9,3.2
	l1.9-1.3l1.9,11.3l1.9,7.5l1.9,1.7l1.9-9.2l1.9,7.4l1.9-5.4l1.9-8.5"/>
<path class="st10" d="M58.9,73l1.9,2.7l1.9-7.5l1.9-0.3l1.9-1.8l1.9,0.5l1.9,1.7l1.9,1.6l1.9,2.3l1.9,3.1l1.9,2.9l1.9,2.4l1.9,3.1
	l1.9,2.7l1.9,2.7l1.9,1.9l1.9,2.7l1.9,2l1.9,2.4l1.9,1.6l1.9,1.7l1.9,1.5l1.9,1.4l1.9,1.3l1.9,1.3l1.9,0.8l1.9,0.9l1.9,1.1l1.9,0.6
	l1.9,0.6l1.9,0.7l1.9,0.1l1.9,0.1l1.9,0.3l1.9,0.2l1.9,0.1l1.9,0.3l1.9,0.1l1.9,0.3l1.9-0.2l1.9-0.3l1.9-0.2l1.9-0.5l1.9-0.6
	l1.9-0.2l1.9-0.4l1.9-0.4l1.9-0.1l1.9-0.6l1.9-0.7l1.9-0.8l1.9-0.5l1.9-0.7l1.9-0.3l1.9-1.2l1.9-0.9l1.9-1l1.9-0.9l1.9-0.9l1.9,0
	l1.9-0.5l1.9-1.1l1.9-0.5l1.9-0.6l1.9-1.1l1.9-1.4l1.9-1.1l1.9-1.2l1.9-0.8l1.9-0.4l1.9-0.7l1.9-0.8l1.9-1.1l1.9-1L201,88l1.9,0.2
	l1.9-0.5l1.9-0.8l1.9-0.5l1.9-0.7l1.9-0.5l1.9-1.2l1.9-0.8l1.9-0.8l1.9,0.6l1.9-0.5l1.9-1.8l1.9-0.4l1.9,0.2l1.9,0.7l1.9-0.7l1.9,0
	l1.9-0.1l1.9,0l1.9,0.5l1.9-0.4l1.9,0.1l1.9,1.2l1.9-0.3l1.9-0.2"/>
<path class="st11" d="M58.9,86l1.9,4.1l1.9-23.5l1.9,19.4l1.9,3.5l1.9-6.2l1.9,1.6l1.9,0.2l1.9-0.9l1.9,0.2l1.9,1l1.9-0.7l1.9,4.1
	l1.9-0.8l1.9,5.1l1.9,0.5l1.9,3.9l1.9,2.3l1.9,0.1l1.9,5.4l1.9,0.7l1.9,4.3l1.9-1.8l1.9-3.2l1.9,1.3l1.9,3.1l1.9-0.1l1.9,1l1.9-1.7
	l1.9-1.1l1.9-2.5l1.9,2l1.9,3.3l1.9,3.3l1.9,4.1l1.9,1.4l1.9,1.9l1.9,0.6l1.9-2.1l1.9,3.2l1.9-0.2l1.9,0l1.9-2.1l1.9-1.7l1.9-2.8
	l1.9-4.1l1.9-0.7l1.9-3.1l1.9-1.5l1.9-3.6l1.9-2.8l1.9,0.9l1.9-1.9l1.9-1.1l1.9-1.6l1.9-1.8l1.9-4.4l1.9,0.7l1.9,0l1.9,2.5l1.9,3.8
	l1.9-3.8l1.9,1l1.9-3.4l1.9-0.2l1.9-2.8l1.9,6.2l1.9-5.2l1.9,5.2l1.9,3.4l1.9-1.9l1.9,0.9l1.9-2.6l1.9,8l1.9-4.3l1.9,3.1l1.9,2.1
	l1.9-3.6l1.9,5.9l1.9,0.7l1.9-6.6l1.9-9.9l1.9-6.5l1.9-1.8l1.9-9.5l1.9-15.2l1.9,4.6L226,69l1.9,4.2l1.9,2.9l1.9-2.8l1.9,11.3
	l1.9,3.7l1.9,4.3l1.9,3.1l1.9,8.6l1.9-7.3l1.9-0.5l1.9-10.8L249,77"/>
<g>
	<path class="st12" d="M58.9,69.9l1.9-2.1l1.9-0.2l1.9-0.6l1.9-1.2l1.9,1.9l1.9,1.1l1.9,1.8l1.9,2.5l1.9,3.1l1.9,2.6l1.9,3.2
		l1.9,2.8l1.9,2.9l1.9,3.2l1.9,1.8l1.9,2.4l1.9,1.9l1.9,2.2l1.9,2l1.9,1.6l1.9,1.8l1.9,1.5l1.9,1.5l1.9,1.2l1.9,0.7l1.9,0.8l1.9,0.8
		l1.9,0.1l1.9,0.1l1.9,0.6l1.9-0.3l1.9,0.2l1.9,0.3l1.9,0l1.9,0.2l1.9-0.3l1.9-0.5l1.9-0.5l1.9-0.1l1.9-0.4l1.9,0l1.9-0.6l1.9,0
		l1.9-0.2l1.9-0.3l1.9-0.6l1.9-0.7l1.9-0.4l1.9-0.6l1.9-0.3l1.9-0.3l1.9-0.8l1.9-0.7l1.9-0.9l1.9-1.1l1.9-1l1.9-1l1.9-1l1.9-1.1
		l1.9-0.4L176,98l1.9-0.6l1.9-0.9l1.9-0.7l1.9-0.7l1.9-0.7l1.9-0.6l1.9-1.1l1.9-0.3l1.9,0.5l1.9-0.5l1.9-0.5l1.9-1.4l1.9-1l1.9,0.1
		l1.9-0.5l1.9-1l1.9-0.4l1.9-0.1l1.9-0.9l1.9-0.6l1.9-0.3l1.9-0.8l1.9-0.5l1.9,0.1l1.9-1.1l1.9-0.5l1.9-0.2l1.9-0.2l1.9-0.4l1.9,0
		l1.9-0.7l1.9-0.5l1.9-0.6l1.9-1.2l1.9-0.9l1.9,0l1.9-0.2l1.9-1.6"/>
</g>
<text transform="matrix(1 0 0 1 292.6823 64.0952)" class="st13"><tspan x="0" y="0" class="st14 st3 st4">left choice</tspan><tspan x="0" y="22.4" class="st14 st3 st4 st15">	</tspan><tspan x="36" y="22.4" class="st14 st3 st4">strong evidence</tspan><tspan x="0" y="44.8" class="st16 st3 st4 st15">	</tspan><tspan x="36" y="44.8" class="st16 st3 st4">weak evidence </tspan><tspan x="0" y="67.2" class="st17 st3 st4">right choice</tspan><tspan x="0" y="89.6" class="st17 st3 st4 st15">	</tspan><tspan x="36" y="89.6" class="st17 st3 st4">strong evidence</tspan><tspan x="0" y="112" class="st18 st3 st4 st15">	</tspan><tspan x="36" y="112" class="st18 st3 st4">weak evidence</tspan></text>
<rect x="281.9" y="42.5" class="st19" width="191.1" height="145"/>
</svg>
